<svg xmlns="http://www.w3.org/2000/svg" width="28.977" height="23.031" viewBox="0 0 28.977 23.031">
  <g id="Group_80096" data-name="Group 80096" transform="translate(0 0)">
    <path id="Path_40" data-name="Path 40" d="M0,11.516A11.516,11.516,0,1,0,11.516,0,11.516,11.516,0,0,0,0,11.516" transform="translate(0 0)" fill="#f5dd4d"/>
    <path id="Path_41" data-name="Path 41" d="M73.854,70.957a10.608,10.608,0,0,0,10.6-10.6h-1.5a9.094,9.094,0,0,1-18.188,0h-1.5a10.608,10.608,0,0,0,10.6,10.6" transform="translate(-55.472 -52.932)"/>
    <path id="Path_42" data-name="Path 42" d="M131.391,47.62a.442.442,0,0,0,.442-.442V42.551a.442.442,0,1,0-.884,0v4.627a.442.442,0,0,0,.442.442" transform="translate(-114.832 -36.926)"/>
    <path id="Path_43" data-name="Path 43" d="M112.562,62.361h4.627a.442.442,0,0,0,0-.884h-4.627a.442.442,0,0,0,0,.884" transform="translate(-98.321 -53.911)"/>
  </g>
</svg>
