<svg xmlns="http://www.w3.org/2000/svg" width="62.918" height="9.788" viewBox="0 0 62.918 9.788">
  <g id="Group_45" data-name="Group 45" transform="translate(0 0)">
    <path id="Path_32" data-name="Path 32" d="M88.435,3.272c-.195-.008-.661-.1-.784-.819A2.363,2.363,0,0,0,85.325.547H85.3c-.032,0-.063,0-.1,0h0a2.361,2.361,0,0,0-2.346,1.881c-.131.714-.6.8-.793.811h-.1c-.195-.008-.661-.1-.784-.819A2.363,2.363,0,0,0,78.859.513h-.022c-.032,0-.063,0-.1,0h0A2.361,2.361,0,0,0,76.4,2.394c-.131.714-.6.8-.793.811H75.56v.952h.071a1.8,1.8,0,0,0,1.7-1.591,1.436,1.436,0,0,1,1.485-1.1h0A1.43,1.43,0,0,1,80.246,2.58a1.8,1.8,0,0,0,1.685,1.61H82.1A1.8,1.8,0,0,0,83.8,2.6a1.437,1.437,0,0,1,1.485-1.1h0a1.43,1.43,0,0,1,1.429,1.116A1.8,1.8,0,0,0,88.4,4.224h.1V3.272h-.057" transform="translate(-65.911 -0.446)" fill="#b4b3b3"/>
    <path id="Path_33" data-name="Path 33" d="M189.707,3.8c-.195-.008-.661-.1-.784-.819A2.363,2.363,0,0,0,186.6,1.074h-.022c-.032,0-.063,0-.1,0h0a2.361,2.361,0,0,0-2.346,1.881c-.131.714-.6.8-.793.811h-.1c-.195-.008-.661-.1-.784-.819a2.363,2.363,0,0,0-2.326-1.906h-.022c-.032,0-.063,0-.095,0h0a2.361,2.361,0,0,0-2.346,1.881c-.131.714-.6.8-.793.811h-.043v.952h.071a1.8,1.8,0,0,0,1.7-1.591,1.437,1.437,0,0,1,1.485-1.1h0a1.43,1.43,0,0,1,1.429,1.116,1.8,1.8,0,0,0,1.685,1.61h.167a1.8,1.8,0,0,0,1.7-1.591,1.437,1.437,0,0,1,1.485-1.1h0a1.43,1.43,0,0,1,1.429,1.116,1.8,1.8,0,0,0,1.685,1.61h.1V3.8h-.057" transform="translate(-154.251 -0.906)" fill="#b4b3b3"/>
    <path id="Path_34" data-name="Path 34" d="M9.592,2.759c-.195-.008-.661-.1-.784-.819A2.362,2.362,0,0,0,6.482.034H6.46c-.032,0-.063,0-.1,0h0A2.361,2.361,0,0,0,4.018,1.915c-.131.714-.6.8-.793.811h-.1c-.195-.008-.661-.1-.784-.819A2.363,2.363,0,0,0,.016,0H0V.953A1.427,1.427,0,0,1,1.4,2.067a1.8,1.8,0,0,0,1.685,1.61h.167a1.8,1.8,0,0,0,1.7-1.591A1.437,1.437,0,0,1,6.44.985h0A1.43,1.43,0,0,1,7.869,2.1,1.8,1.8,0,0,0,9.553,3.71l.054,0h.041V2.759H9.592" transform="translate(0 0)" fill="#b4b3b3"/>
    <path id="Path_35" data-name="Path 35" d="M278.16,3.8c.195-.008.661-.1.784-.819a2.362,2.362,0,0,1,2.326-1.905h.022c.032,0,.063,0,.095,0h0a2.361,2.361,0,0,1,2.346,1.881c.131.714.6.8.793.811h.1c.195-.008.661-.1.784-.819a2.363,2.363,0,0,1,2.326-1.906h.016V2a1.427,1.427,0,0,0-1.4,1.115,1.8,1.8,0,0,1-1.684,1.61H284.5a1.8,1.8,0,0,1-1.7-1.591,1.437,1.437,0,0,0-1.485-1.1h0a1.43,1.43,0,0,0-1.429,1.116,1.8,1.8,0,0,1-1.684,1.61l-.054,0H278.1V3.8h.057" transform="translate(-242.59 -0.91)" fill="#b4b3b3"/>
    <path id="Path_36" data-name="Path 36" d="M227.487,49.8c-.195-.008-.661-.1-.784-.819a2.363,2.363,0,0,0-2.326-1.905h-.022c-.032,0-.063,0-.1,0h0a2.361,2.361,0,0,0-2.346,1.881c-.131.714-.6.8-.793.811h-.1c-.195-.008-.661-.1-.784-.819a2.363,2.363,0,0,0-2.326-1.906h-.022c-.032,0-.063,0-.1,0h0a2.361,2.361,0,0,0-2.346,1.881c-.131.714-.6.8-.793.811h-.043v.952h.071a1.8,1.8,0,0,0,1.7-1.591A1.436,1.436,0,0,1,217.87,48h0a1.43,1.43,0,0,1,1.429,1.116,1.8,1.8,0,0,0,1.685,1.61h.167a1.8,1.8,0,0,0,1.7-1.591,1.437,1.437,0,0,1,1.485-1.1h0a1.43,1.43,0,0,1,1.429,1.116,1.8,1.8,0,0,0,1.685,1.61h.1V49.8h-.057" transform="translate(-187.207 -41.036)" fill="#b4b3b3"/>
    <path id="Path_37" data-name="Path 37" d="M328.758,50.33c-.195-.008-.661-.1-.784-.819a2.362,2.362,0,0,0-2.326-1.905h-.022c-.032,0-.063,0-.1,0h0a2.361,2.361,0,0,0-2.346,1.881c-.131.714-.6.8-.793.811h-.1c-.195-.008-.661-.1-.784-.819a2.363,2.363,0,0,0-2.326-1.905h-.022c-.032,0-.063,0-.1,0h0a2.361,2.361,0,0,0-2.346,1.881c-.131.714-.6.8-.793.811h-.043v.952h.071a1.8,1.8,0,0,0,1.7-1.591,1.436,1.436,0,0,1,1.485-1.1h0a1.429,1.429,0,0,1,1.428,1.116,1.8,1.8,0,0,0,1.685,1.61h.167a1.8,1.8,0,0,0,1.7-1.591,1.437,1.437,0,0,1,1.485-1.1h0a1.43,1.43,0,0,1,1.429,1.116,1.8,1.8,0,0,0,1.685,1.61h.1V50.33h-.057" transform="translate(-275.546 -41.495)" fill="#b4b3b3"/>
    <path id="Path_38" data-name="Path 38" d="M148.644,49.291c-.195-.008-.661-.1-.784-.819a2.362,2.362,0,0,0-2.326-1.905h-.022c-.032,0-.063,0-.1,0h0a2.361,2.361,0,0,0-2.346,1.881c-.131.714-.6.8-.793.811h-.1c-.195-.008-.661-.1-.784-.819a2.363,2.363,0,0,0-2.326-1.906h-.016v.952a1.427,1.427,0,0,1,1.4,1.115,1.8,1.8,0,0,0,1.685,1.61h.167a1.8,1.8,0,0,0,1.7-1.591,1.437,1.437,0,0,1,1.485-1.1h0a1.43,1.43,0,0,1,1.429,1.116,1.8,1.8,0,0,0,1.685,1.61l.054,0h.041v-.952h-.057" transform="translate(-121.296 -40.59)" fill="#b4b3b3"/>
    <path id="Path_39" data-name="Path 39" d="M417.212,50.334c.195-.008.661-.1.784-.819a2.362,2.362,0,0,1,2.326-1.905h.022c.032,0,.063,0,.1,0h0a2.361,2.361,0,0,1,2.346,1.881c.131.714.6.8.793.811h.1c.195-.008.661-.1.784-.819a2.363,2.363,0,0,1,2.326-1.906h.016v.952a1.427,1.427,0,0,0-1.4,1.115,1.8,1.8,0,0,1-1.685,1.61h-.167a1.8,1.8,0,0,1-1.7-1.591,1.437,1.437,0,0,0-1.485-1.1h0a1.43,1.43,0,0,0-1.429,1.116,1.8,1.8,0,0,1-1.684,1.61l-.054,0h-.041v-.952h.057" transform="translate(-363.885 -41.5)" fill="#b4b3b3"/>
  </g>
</svg>
