<svg xmlns="http://www.w3.org/2000/svg" width="412.296" height="127.795" viewBox="0 0 412.296 127.795">
  <g id="Group_84" data-name="Group 84" transform="translate(-651.686 -234)">
    <g id="Group_82" data-name="Group 82" transform="translate(651.686 234)">
      <g id="Group_48" data-name="Group 48" transform="translate(0 0)">
        <path id="Path_11" data-name="Path 11" d="M349.439,35.267a96.138,96.138,0,0,0-1.633-11.72q-1.173-5.793-2.813-11.452c-.55-1.888-1.09-3.763-1.71-5.63s-1.2-3.7-1.938-5.566a1.235,1.235,0,0,0-1.67-.8c-.6.236-.538.836-.538,1.449v.026c0,.322-.307.758-.3,1.147s-.357.805-.372,1.211c-.028.813-.1,1.627-.191,2.44a32.442,32.442,0,0,1-.947,4.818,34.152,34.152,0,0,1-3.933,8.985,33.21,33.21,0,0,1-2.911,3.98,37.6,37.6,0,0,1-3.46,3.538c-1.233,1.079-2.572,2.149-3.891,3.28s-2.606,2.265-3.862,3.465-2.469,2.442-3.622,3.753a35.638,35.638,0,0,0-3.182,4.18,23.674,23.674,0,0,0-4.067,15,28.925,28.925,0,0,0,.805,5.133,38.771,38.771,0,0,0,1.527,4.928c.595,1.609,1.311,3.169,2.036,4.716-.6-1.6-1.188-3.2-1.65-4.846-.256-.811-.452-1.638-.67-2.458-.18-.831-.378-1.656-.507-2.49a30.928,30.928,0,0,1-.482-5.023,23.528,23.528,0,0,1,.473-4.965,22.463,22.463,0,0,1,1.531-4.705,25.709,25.709,0,0,1,2.492-4.283,46.238,46.238,0,0,1,6.786-7.354c1.249-1.127,2.554-2.2,3.869-3.265s2.681-2.063,4.034-3.217a40.262,40.262,0,0,0,3.77-3.715,35.639,35.639,0,0,0,3.213-4.226,34.694,34.694,0,0,0,4.385-9.667,34.956,34.956,0,0,0,.8-3.517c.491,1.486.966,2.978,1.413,4.478,1.1,3.7,2.06,7.438,2.847,11.205a104.2,104.2,0,0,1,1.78,11.382,60.089,60.089,0,0,1,.062,11.419,34.806,34.806,0,0,1-.986,5.568,23.858,23.858,0,0,1-2.02,5.2l-.327.6-.378.625c-.227.375-.52.781-.777,1.168s-.547.775-.832,1.156-.568.761-.877,1.122a33.5,33.5,0,0,1-3.961,4.094,34.873,34.873,0,0,1-4.61,3.394,37.784,37.784,0,0,1-10.625,4.419c-1.7.42-3.276.661-3.37.675a3.209,3.209,0,0,0-.318.114c-.05.057.031-.034-.023.03.094-.005.126.063.289.054s1.763-.116,3.519-.414a39.188,39.188,0,0,0,5.705-1.466,36.194,36.194,0,0,0,5.42-2.383,33.545,33.545,0,0,0,4.971-3.271,34.974,34.974,0,0,0,4.333-4.108c.342-.366.663-.749.974-1.138s.639-.77.929-1.177.595-.781.889-1.228l.406-.607.4-.67a26.079,26.079,0,0,0,2.374-5.595,37.222,37.222,0,0,0,1.231-5.891,47.343,47.343,0,0,0,.4-5.963q.026-2.982-.2-5.945" transform="translate(-122.895 0)" fill="#96c140"/>
        <path id="Path_12" data-name="Path 12" d="M279.993,93.853a30.162,30.162,0,0,0,1.133-3.306,25.559,25.559,0,0,0,.715-3.446,22.765,22.765,0,0,0,.218-3.547,18.406,18.406,0,0,0-1.536-7.029,16.072,16.072,0,0,0-1.852-3.158l-.134-.186-.034-.048-.009-.011-.045-.055-.018-.019-.07-.082-.282-.327-.564-.657-.563-.654c-.2-.217-.434-.427-.652-.64-.443-.423-.886-.853-1.338-1.268l-1.392-1.125a17.719,17.719,0,0,0-1.44-1.053c-.491-.332-.974-.684-1.474-1-1.013-.606-2.011-1.252-3.055-1.792-.521-.277-1.032-.577-1.561-.834l-1.582-.779c-.523-.269-1.07-.482-1.606-.725s-1.074-.475-1.62-.686l-1.634-.652-1.649-.611c-1.1-.393-2.211-.77-3.33-1.122s-2.225-.687-3.41-.977a1.439,1.439,0,0,0-1.353,2.421l.031.028c.328.325.716.725,1.057,1.12.357.392.69.811,1.027,1.222.656.845,1.289,1.706,1.861,2.608l.435.674.4.693.4.693.359.713a15.692,15.692,0,0,1,.677,1.441c.2.49.445.966.6,1.472s.37.995.511,1.5l.407,1.531a22.75,22.75,0,0,1,.444,3.124l.063.788c.014.262-.009.525-.01.788l-.038,1.62-.034.838c-.005.288,0,.6,0,.9s.014.6.032.89.027.588.066.88a21.231,21.231,0,0,0,.615,3.464,18.3,18.3,0,0,0,1.184,3.307,18.037,18.037,0,0,0,4.06,5.669,13.694,13.694,0,0,0,6.055,3.31,11.624,11.624,0,0,0,3.417.289,11.792,11.792,0,0,0,3.3-.72,12.363,12.363,0,0,1-3.3.291,11.3,11.3,0,0,1-3.2-.616,13.034,13.034,0,0,1-5.289-3.544,15.778,15.778,0,0,1-1.924-2.547,18.159,18.159,0,0,1-1.4-2.863,19.519,19.519,0,0,1-.9-3.051,19.1,19.1,0,0,1-.4-3.149c-.023-.264-.014-.529-.02-.793s-.007-.531.009-.784.018-.508.035-.775l.077-.834.016-.179.014-.222.026-.441.048-.886c.011-.295.041-.589.034-.884l-.04-.885a24.875,24.875,0,0,0-.4-3.515l-.4-1.721c-.141-.571-.345-1.122-.515-1.684s-.407-1.1-.618-1.647-.464-1.075-.722-1.6l-.384-.787-.425-.765-.426-.764-.463-.741c-.371-.611-.777-1.2-1.2-1.777.664.214,1.325.432,1.984.659l1.6.575,1.585.613c1.054.411,2.088.868,3.124,1.318l1.54.7c.515.232,1.007.5,1.513.75,1.018.488,1.974,1.07,2.954,1.618.482.284.943.6,1.415.9l.705.453c.234.152.446.329.673.491l1.347.984,1.225,1.051c.206.18.413.339.615.534l.595.627.595.627.3.314.073.079.007.007.023.028.125.159a15.8,15.8,0,0,1,1.79,2.7,16.811,16.811,0,0,1,1.825,6.288,24.667,24.667,0,0,1-.295,6.732,30.383,30.383,0,0,1-.761,3.336c-.131.463-.275.92-.427,1.374.039.116.086.266.12.375q.381-.79.722-1.6" transform="translate(-99.414 -23.125)" fill="#96c140"/>
        <path id="Path_13" data-name="Path 13" d="M61,97.789H55.715v68.546H77.552v-5.282H61Z" transform="translate(-22.206 -38.975)" fill="#528033"/>
        <rect id="Rectangle_10" data-name="Rectangle 10" width="5.282" height="68.546" transform="translate(129.676 58.812)" fill="#528033"/>
        <path id="Path_14" data-name="Path 14" d="M251.207,97.789H236.045v5.28h9.544v63.266h5.382V103.069h.879a22.866,22.866,0,0,1-.523-3.083c-.009-.073-.063-1.07-.12-2.2" transform="translate(-94.079 -38.975)" fill="#528033"/>
        <path id="Path_15" data-name="Path 15" d="M274.021,97.789h-3.814l-.02.411c-.012.207,0,1.24.005,1.379a17.9,17.9,0,0,0,.345,2.967c.036.18.109.345.15.523h3.333Z" transform="translate(-107.685 -38.975)" fill="#528033"/>
        <path id="Path_16" data-name="Path 16" d="M320.882,57.554C320.448,58.88,320,60.2,319.5,61.5s-1.007,2.592-1.549,3.871-1.107,2.545-1.711,3.794c-.293.628-.606,1.247-.913,1.869s-.612,1.241-.943,1.85c-.634,1.233-1.322,2.433-2,3.637-.714,1.186-1.416,2.376-2.162,3.542-.72,1.179-1.513,2.311-2.281,3.46-.808,1.122-1.594,2.258-2.445,3.344-.827,1.1-1.69,2.183-2.553,3.26-.423.545-.89,1.056-1.332,1.586s-.882,1.061-1.356,1.563c-.933,1.016-1.847,2.052-2.826,3.024l-1.445,1.483L294.5,99.22c-.973.979-2.029,1.872-3.043,2.81-.392.354-.793.695-1.2,1.037-.009-.068-.018-.136-.031-.2-.134-.942-.321-1.865-.49-2.794-.2-.92-.375-1.848-.607-2.759s-.432-1.833-.7-2.735c-.248-.841-.459-1.692-.741-2.522v0c-.036-.105-.082-.25-.118-.366l0,.005c-.278-.831-.541-1.665-.84-2.486l-.989-2.637c-.343-.871-.724-1.73-1.083-2.593s-.773-1.707-1.186-2.549-.793-1.7-1.254-2.512l-1.347-2.46c-.221-.411-.464-.811-.718-1.2l-.742-1.188-.743-1.186-.371-.594-.4-.573-1.627-2.276a9.469,9.469,0,0,0-1.917-2c-.58-.47-3.794-2.94-3.794-2.94l2.826,3.728c.49.786,1.016,1.543,1.454,2.359l1.37,2.406.348.6.315.614.63,1.231.627,1.227c.217.405.42.818.6,1.241l1.154,2.5c.4.825.706,1.694,1.063,2.538s.7,1.7.989,2.563c.311.861.644,1.715.938,2.581l.838,2.613c.271.871.5,1.758.75,2.635.131.439.245.881.352,1.326l.339,1.327c.238.882.418,1.779.618,2.669s.368,1.788.541,2.681c.009.068.03.136.035.206.936,11.541.89,45.534.89,45.534h5.281s-1.031-29.32-.1-40.563c.018-.066.027-.128.046-.192a6.838,6.838,0,0,1,1.231-2.476c.245-.22.491-.437.736-.657.011-.005.022-.019.034-.025l0,0c.682-.607,1.363-1.217,2.013-1.86l1.534-1.477c.506-.5.99-1.02,1.483-1.531,1-1.013,1.929-2.086,2.88-3.144.046-.05.09-.1.134-.153.07-.086.177-.206.269-.309h0c.247-.289.588-.682.979-1.159.45-.55.923-1.081,1.356-1.646.871-1.122,1.766-2.224,2.576-3.394.845-1.143,1.62-2.334,2.413-3.51.755-1.2,1.534-2.388,2.24-3.621.737-1.211,1.4-2.47,2.068-3.719.638-1.265,1.282-2.528,1.87-3.817.307-.638.591-1.288.874-1.938s.562-1.3.816-1.959c.53-1.311,1.02-2.64,1.484-3.974s.9-2.681,1.277-4.042c.395-1.356.732-2.728,1.056-4.1.3-1.377.57-2.762.793-4.151a41.335,41.335,0,0,0,.459-4.193,68.652,68.652,0,0,1-2.154,8.1" transform="translate(-107.835 -19.712)" fill="#528033"/>
        <path id="Path_17" data-name="Path 17" d="M5.28,127.775h0V97.789H0v68.544H5.28V127.775Z" transform="translate(0 -38.975)" fill="#528033"/>
        <path id="Path_18" data-name="Path 18" d="M32.117,97.789H26.835L15.36,129.37H12.55v5.282h2.81l11.475,31.682h5.282L19.524,132.012Z" transform="translate(-5.002 -38.975)" fill="#528033"/>
        <path id="Path_19" data-name="Path 19" d="M183.426,120.434V112A14.257,14.257,0,0,0,169.211,97.79h-11.68v68.544h5.28V134.651h0v-5.28h0v-26.3h6.4A8.883,8.883,0,0,1,178.146,112v8.429a8.885,8.885,0,0,1-8.935,8.937h-4.13v5.28h4.13a8.885,8.885,0,0,1,8.935,8.937v22.746h5.28V143.588a14.457,14.457,0,0,0-5.991-11.576,14.315,14.315,0,0,0,5.991-11.577" transform="translate(-62.786 -38.975)" fill="#528033"/>
        <path id="Path_20" data-name="Path 20" d="M116.649,97.789h-8.935L97.252,166.334h5.28l2.642-17.568h.013l.8-5.282h0l6.093-39.807h.2l6,39.807h-9.992l-.8,5.282h11.605l2.744,17.568h5.28Z" transform="translate(-38.761 -38.975)" fill="#528033"/>
      </g>
    </g>
    <g id="Group_83" data-name="Group 83" transform="translate(878.431 296.711)">
      <path id="Path_108" data-name="Path 108" d="M169.224,223.317h-8.708v58.341h-4.964V223.317h-8.8v-4.871h22.476Z" transform="translate(-58.698 -217.51)" fill="#96c140"/>
      <path id="Path_109" data-name="Path 109" d="M194.094,229.064a12.174,12.174,0,1,1,24.347,0V269.8a12.174,12.174,0,1,1-24.347,0Zm4.87,40.735a7.3,7.3,0,1,0,14.608,0V229.064a7.3,7.3,0,1,0-14.608,0Z" transform="translate(-77.569 -216.89)" fill="#96c140"/>
      <path id="Path_110" data-name="Path 110" d="M269.986,281.658h-5.527l-10.019-53h-.188v53h-4.869V218.446h7.306l10.395,55.719h.186l10.488-55.719h7.4v63.212h-4.869V228.185H280.1Z" transform="translate(-99.605 -217.51)" fill="#96c140"/>
      <path id="Path_111" data-name="Path 111" d="M29.967,218.447H25.1L14.516,247.572H11.922v4.867h2.594L25.1,281.659h4.869L18.354,250.007Z" transform="translate(-4.963 -217.51)" fill="#96c140"/>
      <path id="Path_112" data-name="Path 112" d="M5.222,247.571V218.446H.351v63.212H5.222V247.571Z" transform="translate(-0.351 -217.51)" fill="#96c140"/>
      <path id="Path_113" data-name="Path 113" d="M75.626,239.33v-7.772a13.15,13.15,0,0,0-13.111-13.111H51.745v63.212h4.869V223.318h5.9a8.192,8.192,0,0,1,8.24,8.24v7.772a8.194,8.194,0,0,1-8.24,8.242H58.7v4.867h3.812a8.193,8.193,0,0,1,8.24,8.242v20.978h4.871V260.681A13.334,13.334,0,0,0,70.1,250.007a13.205,13.205,0,0,0,5.527-10.677" transform="translate(-20.834 -217.51)" fill="#96c140"/>
      <path id="Path_114" data-name="Path 114" d="M111.434,296.609l-.409,2.724.414-2.724Z" transform="translate(-44.46 -248.663)" fill="#96c140"/>
      <path id="Path_115" data-name="Path 115" d="M117.445,218.447H109.2l-9.645,63.212h4.869l1.842-12.248h0l.186-1.229.411-2.726h.005l1.054-6.931h0l5.305-34.648h.186l5.525,36.711h-9.221l-.742,4.867h10.71l2.53,16.2h4.869Z" transform="translate(-39.892 -217.51)" fill="#96c140"/>
    </g>
  </g>
</svg>
