<svg xmlns="http://www.w3.org/2000/svg" width="116.635" height="108.865" viewBox="0 0 116.635 108.865">
  <g id="Group_79882" data-name="Group 79882" transform="translate(-14.652 4.723) rotate(-11)">
    <g id="Group_79859" data-name="Group 79859" transform="translate(36.82 11.233) rotate(-2)">
      <path id="Path_42027" data-name="Path 42027" d="M563.815,6.425l.072-.061c.088.036.108.109.144.2a8.5,8.5,0,0,1,.462,1.423,42.1,42.1,0,0,0,6.2,10.631c2.2,2.842,5.13,6.037,6.46,9.417a20.521,20.521,0,0,1,1.762,5.709c.084.64.157,1.29.192,1.935.024.435,0,.906.063,1.333a.951.951,0,0,0,.111.308l.13.209c.353.776.749,1.53,1.082,2.316a35.4,35.4,0,0,1,2.141,7.041,28.85,28.85,0,0,1,.536,4.155c.024.3.043.588.044.885a15.587,15.587,0,0,1,.029,2.71A35.311,35.311,0,0,1,581.17,65.1a9.48,9.48,0,0,1-.68,1.752c-.01.016-.024.03-.036.046a40.151,40.151,0,0,1-5.35,9.057,11.417,11.417,0,0,1-1.016,1.293,32.445,32.445,0,0,1-4.291,4.359,10.921,10.921,0,0,1-.893.792c-.682.577-1.376,1.128-2.11,1.634-.6.417-1.235.786-1.82,1.232-.047.059-.1.116-.137.179l-.153-.032c-.181.122-.561.443-.786.4l-.035-.1-.008,0c-.269.054-.6-.2-.834-.334a.478.478,0,0,0-.04-.2c-.136-.314-.973-.722-1.28-.842a2.167,2.167,0,0,1-.343-.173l-.046-.029-.064.028a12.161,12.161,0,0,1-1.684-1.232,38.8,38.8,0,0,1-6.368-6.34,16.278,16.278,0,0,1-1.38-1.813,44.96,44.96,0,0,1-3.943-6.666,28.918,28.918,0,0,1-1.725-4.346,30.252,30.252,0,0,1-1.465-7.107,7.494,7.494,0,0,1-.071-.918A34.928,34.928,0,0,1,545.8,44.037c.345-1.235.791-2.44,1.244-3.636a20.11,20.11,0,0,1,.883-1.963,9.092,9.092,0,0,0,.642-1.335l.011-.037c.027-.44.006-.9.006-1.338a7.692,7.692,0,0,1,.076-1.605c.057-.275.091-.559.134-.838a19.383,19.383,0,0,1,1.255-4.215,22.725,22.725,0,0,1,2.295-4.358,7.708,7.708,0,0,1,1.357-1.843c.264-.382.573-.744.859-1.11q.946-1.194,1.863-2.412a9.13,9.13,0,0,1,.583-.787l1.267-1.688a43.847,43.847,0,0,0,2.43-3.733,32.066,32.066,0,0,0,1.919-3.784c.376-.9.668-1.859,1.122-2.718l.026-.047Z" transform="translate(-544.506 -6.364)" fill="#af1420"/>
      <path id="Path_42028" data-name="Path 42028" d="M1023.48,6.425l.073-.061c.089.036.11.109.147.2a8.39,8.39,0,0,1,.471,1.423,41.924,41.924,0,0,0,6.321,10.631c2.245,2.842,5.229,6.037,6.585,9.417a20.226,20.226,0,0,1,1.8,5.709c.086.64.16,1.29.2,1.935.024.435,0,.906.064,1.333a.944.944,0,0,0,.114.308l.133.209c.36.776.763,1.53,1.1,2.316a34.913,34.913,0,0,1,2.183,7.041,28.352,28.352,0,0,1,.546,4.155c.024.3.043.588.044.885a15.291,15.291,0,0,1,.03,2.71,34.721,34.721,0,0,1-2.115,10.467,9.373,9.373,0,0,1-.693,1.752c-.011.016-.025.03-.037.046a40,40,0,0,1-5.454,9.057,11.451,11.451,0,0,1-1.036,1.293,32.754,32.754,0,0,1-4.374,4.359,11.1,11.1,0,0,1-.91.792c-.7.577-1.4,1.128-2.15,1.634-.616.417-1.259.786-1.855,1.232-.048.059-.1.116-.14.179l-.156-.032c-.185.122-.572.443-.8.4l-.036-.1c.1-2.426-.074-4.878.085-7.3l-.049-4.313c0-.845.015-1.692-.012-2.536a3.353,3.353,0,0,0,.108-1.041,23.283,23.283,0,0,1-.1-2.865q-.011-1.534.019-3.069l-.014-34.768,0-14.255,0-5.034c0-.876-.023-1.754,0-2.63-.019-.126-.03-.255-.044-.382a3,3,0,0,0-.1-.918Z" transform="translate(-1004.549 -6.364)" fill="#ce4b52"/>
      <path id="Path_42030" data-name="Path 42030" d="M1041.845,805.78c.6,8.27-1.865,14.405-6.467,21.12a87.62,87.62,0,0,0-6.656,10.5,25.188,25.188,0,0,0-1.653,4.364c-.2.721-.332,1.463-.557,2.177l-.049-4.247c0-.832.015-1.666-.012-2.5a3.247,3.247,0,0,0,.108-1.025c.094-.444.26-.9.387-1.334,1.479-5.092,4.63-9.288,7.587-13.6C1037.8,816.465,1040.773,811.534,1041.845,805.78Z" transform="translate(-1007.445 -772.126)" fill="#af1420"/>
      <path id="Path_42034" data-name="Path 42034" d="M1026.68,560.592a3.985,3.985,0,0,1,.5-1.1,85.613,85.613,0,0,1,5.9-9.207c.419-.612.866-1.2,1.267-1.828a54.114,54.114,0,0,0,3.886-6.877,25.39,25.39,0,0,0,2.442-12.952,21.405,21.405,0,0,0-.3-2.983,7.508,7.508,0,0,0-.359-1.008l.036-.022-.037.06,0-.142.054-.016.076.105.035-.012a19.7,19.7,0,0,1,1.8,5.621c.086.63.16,1.27.2,1.905.024.428,0,.892.064,1.312a.921.921,0,0,0,.114.3l-.1.055c-.048.209.011.417-.046.622-.052.531-.145,1.088-.152,1.619-1.072,5.754-4.046,10.685-7.313,15.453-2.956,4.314-6.108,8.51-7.587,13.6-.127.437-.293.89-.386,1.334a22.573,22.573,0,0,1-.1-2.821Q1026.65,562.1,1026.68,560.592Z" transform="translate(-1007.645 -502.651)" fill="#ff7179"/>
      <path id="Path_42036" data-name="Path 42036" d="M548.654,743.788l.031.066.008.058c.075.534.067,1.077.127,1.613a22.131,22.131,0,0,0,.832,4.023c1.415,4.5,4.053,8.563,6.692,12.427,2.885,4.225,6.138,8.5,7.48,13.516a20.743,20.743,0,0,1,.438,2.25c.027.831.008,1.666.012,2.5l.049,4.246c-.159,2.384.017,4.8-.085,7.187l-.008,0c-.274.053-.612-.2-.85-.328a.456.456,0,0,0-.041-.2c-.139-.309-.992-.711-1.3-.829a2.224,2.224,0,0,1-.349-.171l-.047-.028-.065.027a12.391,12.391,0,0,1-1.717-1.213,38.918,38.918,0,0,1-6.492-6.242,16.1,16.1,0,0,1-1.407-1.785,43.974,43.974,0,0,1-4.02-6.563,27.917,27.917,0,0,1-1.758-4.279,28.9,28.9,0,0,1-1.494-7,7.141,7.141,0,0,1-.072-.9,33.268,33.268,0,0,1,1.206-11.513c.352-1.216.806-2.4,1.268-3.58a19.468,19.468,0,0,1,.9-1.933,8.827,8.827,0,0,0,.654-1.314Z" transform="translate(-544.506 -712.335)" fill="#d9202a"/>
      <path id="Path_42039" data-name="Path 42039" d="M1002.191,1903.98c.238.129.576.382.85.328l.008,0,.036.1c.229.047.616-.27.8-.39l.156.031a11.964,11.964,0,0,1,.027,1.924c0,.934.058,1.91-.016,2.839a1.075,1.075,0,0,1-.125.5,1.3,1.3,0,0,1-.613.437,2.229,2.229,0,0,1-.354-.01.964.964,0,0,1-.708-.4,1.388,1.388,0,0,1-.139-.622c-.073-.988-.011-2.022-.011-3.015a11.252,11.252,0,0,1,.01-1.692Z" transform="translate(-983.692 -1824.966)" fill="#af1420"/>
    </g>
    <g id="Group_79862" data-name="Group 79862" transform="translate(0 58.409)">
      <g id="Group_79860" data-name="Group 79860" transform="translate(100.436 0) rotate(45)">
        <path id="Path_42027-2" data-name="Path 42027" d="M12.942.04,12.99,0c.059.024.072.071.1.127a5.374,5.374,0,0,1,.31.921,27.054,27.054,0,0,0,4.156,6.883c1.476,1.84,3.438,3.908,4.33,6.1a12.954,12.954,0,0,1,1.181,3.7c.057.414.105.835.129,1.253.016.281,0,.586.042.863a.6.6,0,0,0,.075.2l.087.135c.237.5.5.991.725,1.5a22.348,22.348,0,0,1,1.435,4.558,18.074,18.074,0,0,1,.359,2.69c.016.192.029.381.029.573a9.754,9.754,0,0,1,.02,1.755,22.178,22.178,0,0,1-1.391,6.776,6.017,6.017,0,0,1-.456,1.134c-.007.011-.016.02-.024.03a25.816,25.816,0,0,1-3.586,5.863,7.43,7.43,0,0,1-.681.837,21.372,21.372,0,0,1-2.876,2.822,7.244,7.244,0,0,1-.6.513c-.457.374-.922.73-1.414,1.058-.4.27-.827.509-1.22.8-.032.038-.064.075-.092.116l-.1-.02c-.122.079-.376.287-.527.256l-.024-.068-.005,0c-.18.035-.4-.131-.559-.216a.3.3,0,0,0-.027-.132c-.091-.2-.652-.468-.858-.545a1.472,1.472,0,0,1-.23-.112l-.031-.019-.043.018a8.143,8.143,0,0,1-1.129-.8,25.594,25.594,0,0,1-4.269-4.1A10.588,10.588,0,0,1,4.9,44.284a28.909,28.909,0,0,1-2.643-4.316A18.354,18.354,0,0,1,1.1,37.155a19,19,0,0,1-.982-4.6,4.7,4.7,0,0,1-.047-.594,21.875,21.875,0,0,1,.793-7.57c.231-.8.53-1.58.834-2.354a12.8,12.8,0,0,1,.592-1.271,5.807,5.807,0,0,0,.43-.864l.007-.024c.018-.285,0-.581,0-.866a4.809,4.809,0,0,1,.051-1.039c.038-.178.061-.362.09-.542A12.231,12.231,0,0,1,3.713,14.7a14.547,14.547,0,0,1,1.538-2.821,5.007,5.007,0,0,1,.909-1.193c.177-.247.384-.482.576-.718q.634-.773,1.249-1.561a5.932,5.932,0,0,1,.391-.51L9.225,6.8a28.32,28.32,0,0,0,1.629-2.416,20.513,20.513,0,0,0,1.286-2.45c.252-.581.448-1.2.752-1.759l.017-.031Z" transform="translate(0 0)" fill="#af1420"/>
        <path id="Path_42028-2" data-name="Path 42028" d="M.033.04.081,0c.059.024.072.071.1.127a5.376,5.376,0,0,1,.31.921A27.054,27.054,0,0,0,4.644,7.931c1.476,1.84,3.438,3.908,4.33,6.1a12.954,12.954,0,0,1,1.181,3.7c.057.414.105.835.129,1.253.016.281,0,.586.042.863a.6.6,0,0,0,.075.2l.087.135c.237.5.5.991.725,1.5a22.347,22.347,0,0,1,1.435,4.558,18.075,18.075,0,0,1,.359,2.69c.016.192.029.381.029.573a9.754,9.754,0,0,1,.02,1.755,22.178,22.178,0,0,1-1.391,6.776,6.019,6.019,0,0,1-.456,1.134c-.007.011-.016.02-.024.03A25.816,25.816,0,0,1,7.6,45.052a7.432,7.432,0,0,1-.681.837,21.374,21.374,0,0,1-2.876,2.822,7.248,7.248,0,0,1-.6.513c-.457.374-.922.73-1.414,1.058-.4.27-.827.509-1.22.8-.032.038-.064.075-.092.116l-.1-.02c-.122.079-.376.287-.527.256l-.024-.068C.133,49.792.017,48.2.122,46.637L.089,43.844c0-.547.01-1.1-.008-1.642a2.139,2.139,0,0,0,.071-.674,14.841,14.841,0,0,1-.064-1.855Q.082,38.68.1,37.687L.092,15.179l0-9.228,0-3.259c0-.567-.015-1.136,0-1.7C.08.907.073.824.064.742A1.913,1.913,0,0,0,0,.147Z" transform="translate(12.909 0)" fill="#ce4b52"/>
        <path id="Path_42030-2" data-name="Path 42030" d="M10.123,0c.4,5.438-1.226,9.472-4.252,13.887a57.6,57.6,0,0,0-4.377,6.9,16.562,16.562,0,0,0-1.087,2.87c-.132.474-.218.962-.367,1.431L.008,22.3c0-.547.01-1.1-.008-1.642a2.139,2.139,0,0,0,.071-.674c.061-.292.171-.59.254-.877C1.3,15.756,3.37,13,5.314,10.161,7.463,7.026,9.418,3.784,10.123,0Z" transform="translate(12.99 21.548)" fill="#af1420"/>
        <path id="Path_42034-2" data-name="Path 42034" d="M.014,23.721A2.623,2.623,0,0,1,.344,23a56.29,56.29,0,0,1,3.877-6.054c.275-.4.57-.791.833-1.2A35.584,35.584,0,0,0,7.61,11.218,16.7,16.7,0,0,0,9.216,2.7a14.069,14.069,0,0,0-.2-1.961A4.921,4.921,0,0,0,8.782.078L8.806.064,8.781.1l0-.093L8.814,0l.05.069L8.887.061a12.954,12.954,0,0,1,1.181,3.7c.057.414.105.835.129,1.253.016.281,0,.586.042.863a.6.6,0,0,0,.075.2l-.066.036c-.031.138.007.274-.03.409-.034.349-.1.715-.1,1.065-.705,3.784-2.66,7.026-4.809,10.161-1.944,2.836-4.016,5.6-4.989,8.943-.084.287-.193.585-.254.877A14.842,14.842,0,0,1,0,25.708Q-.005,24.714.014,23.721Z" transform="translate(12.996 13.966)" fill="#ff7179"/>
        <path id="Path_42036-2" data-name="Path 42036" d="M2.727,0l.02.044.006.038C2.8.433,2.8.79,2.837,1.143a14.554,14.554,0,0,0,.547,2.645,31.872,31.872,0,0,0,4.4,8.171c1.9,2.778,4.036,5.589,4.918,8.887a13.641,13.641,0,0,1,.288,1.48c.018.547.005,1.1.008,1.642l.032,2.792c-.1,1.568.011,3.155-.056,4.726l-.005,0c-.18.035-.4-.131-.559-.216a.3.3,0,0,0-.027-.132c-.091-.2-.652-.468-.858-.545a1.472,1.472,0,0,1-.23-.112l-.031-.019-.043.018a8.144,8.144,0,0,1-1.129-.8,25.594,25.594,0,0,1-4.269-4.1A10.589,10.589,0,0,1,4.9,24.408a28.91,28.91,0,0,1-2.643-4.316A18.353,18.353,0,0,1,1.1,17.278a19,19,0,0,1-.982-4.6,4.7,4.7,0,0,1-.047-.594,21.875,21.875,0,0,1,.793-7.57c.231-.8.53-1.58.834-2.354A12.8,12.8,0,0,1,2.29.888,5.806,5.806,0,0,0,2.72.024Z" transform="translate(0 19.877)" fill="#d9202a"/>
        <path id="Path_42039-2" data-name="Path 42039" d="M.078,0C.234.085.456.251.636.216l.005,0L.665.282C.816.312,1.071.1,1.192.025l.1.02a7.855,7.855,0,0,1,.018,1.265c0,.614.038,1.256-.011,1.867a.706.706,0,0,1-.082.33.855.855,0,0,1-.4.287,1.462,1.462,0,0,1-.233-.006.634.634,0,0,1-.465-.261.914.914,0,0,1-.092-.409C-.021,2.469.02,1.789.02,1.137A7.4,7.4,0,0,1,.027.024Z" transform="translate(12.333 51.149)" fill="#af1420"/>
      </g>
      <g id="Group_79861" data-name="Group 79861" transform="translate(0 18.382) rotate(-45)">
        <path id="Path_42027-3" data-name="Path 42027" d="M12.942.04,12.99,0c.059.024.072.071.1.127a5.374,5.374,0,0,1,.31.921,27.054,27.054,0,0,0,4.156,6.883c1.476,1.84,3.438,3.908,4.33,6.1a12.954,12.954,0,0,1,1.181,3.7c.057.414.105.835.129,1.253.016.281,0,.586.042.863a.6.6,0,0,0,.075.2l.087.135c.237.5.5.991.725,1.5a22.348,22.348,0,0,1,1.435,4.558,18.074,18.074,0,0,1,.359,2.69c.016.192.029.381.029.573a9.754,9.754,0,0,1,.02,1.755,22.178,22.178,0,0,1-1.391,6.776,6.017,6.017,0,0,1-.456,1.134c-.007.011-.016.02-.024.03a25.816,25.816,0,0,1-3.586,5.863,7.43,7.43,0,0,1-.681.837,21.372,21.372,0,0,1-2.876,2.822,7.244,7.244,0,0,1-.6.513c-.457.374-.922.73-1.414,1.058-.4.27-.827.509-1.22.8-.032.038-.064.075-.092.116l-.1-.02c-.122.079-.376.287-.527.256l-.024-.068-.005,0c-.18.035-.4-.131-.559-.216a.3.3,0,0,0-.027-.132c-.091-.2-.652-.468-.858-.545a1.472,1.472,0,0,1-.23-.112l-.031-.019-.043.018a8.143,8.143,0,0,1-1.129-.8,25.594,25.594,0,0,1-4.269-4.1A10.588,10.588,0,0,1,4.9,44.284a28.909,28.909,0,0,1-2.643-4.316A18.354,18.354,0,0,1,1.1,37.155a19,19,0,0,1-.982-4.6,4.7,4.7,0,0,1-.047-.594,21.875,21.875,0,0,1,.793-7.57c.231-.8.53-1.58.834-2.354a12.8,12.8,0,0,1,.592-1.271,5.807,5.807,0,0,0,.43-.864l.007-.024c.018-.285,0-.581,0-.866a4.809,4.809,0,0,1,.051-1.039c.038-.178.061-.362.09-.542A12.231,12.231,0,0,1,3.713,14.7a14.547,14.547,0,0,1,1.538-2.821,5.007,5.007,0,0,1,.909-1.193c.177-.247.384-.482.576-.718q.634-.773,1.249-1.561a5.932,5.932,0,0,1,.391-.51L9.225,6.8a28.32,28.32,0,0,0,1.629-2.416,20.513,20.513,0,0,0,1.286-2.45c.252-.581.448-1.2.752-1.759l.017-.031Z" transform="translate(0 0)" fill="#af1420"/>
        <path id="Path_42028-3" data-name="Path 42028" d="M.033.04.081,0c.059.024.072.071.1.127a5.376,5.376,0,0,1,.31.921A27.054,27.054,0,0,0,4.644,7.931c1.476,1.84,3.438,3.908,4.33,6.1a12.954,12.954,0,0,1,1.181,3.7c.057.414.105.835.129,1.253.016.281,0,.586.042.863a.6.6,0,0,0,.075.2l.087.135c.237.5.5.991.725,1.5a22.347,22.347,0,0,1,1.435,4.558,18.075,18.075,0,0,1,.359,2.69c.016.192.029.381.029.573a9.754,9.754,0,0,1,.02,1.755,22.178,22.178,0,0,1-1.391,6.776,6.019,6.019,0,0,1-.456,1.134c-.007.011-.016.02-.024.03A25.816,25.816,0,0,1,7.6,45.052a7.432,7.432,0,0,1-.681.837,21.374,21.374,0,0,1-2.876,2.822,7.248,7.248,0,0,1-.6.513c-.457.374-.922.73-1.414,1.058-.4.27-.827.509-1.22.8-.032.038-.064.075-.092.116l-.1-.02c-.122.079-.376.287-.527.256l-.024-.068C.133,49.792.017,48.2.122,46.637L.089,43.844c0-.547.01-1.1-.008-1.642a2.139,2.139,0,0,0,.071-.674,14.841,14.841,0,0,1-.064-1.855Q.082,38.68.1,37.687L.092,15.179l0-9.228,0-3.259c0-.567-.015-1.136,0-1.7C.08.907.073.824.064.742A1.913,1.913,0,0,0,0,.147Z" transform="translate(12.909 0)" fill="#ce4b52"/>
        <path id="Path_42030-3" data-name="Path 42030" d="M10.123,0c.4,5.438-1.226,9.472-4.252,13.887a57.6,57.6,0,0,0-4.377,6.9,16.562,16.562,0,0,0-1.087,2.87c-.132.474-.218.962-.367,1.431L.008,22.3c0-.547.01-1.1-.008-1.642a2.139,2.139,0,0,0,.071-.674c.061-.292.171-.59.254-.877C1.3,15.756,3.37,13,5.314,10.161,7.463,7.026,9.418,3.784,10.123,0Z" transform="translate(12.99 21.548)" fill="#af1420"/>
        <path id="Path_42034-3" data-name="Path 42034" d="M.014,23.721A2.623,2.623,0,0,1,.344,23a56.29,56.29,0,0,1,3.877-6.054c.275-.4.57-.791.833-1.2A35.584,35.584,0,0,0,7.61,11.218,16.7,16.7,0,0,0,9.216,2.7a14.069,14.069,0,0,0-.2-1.961A4.921,4.921,0,0,0,8.782.078L8.806.064,8.781.1l0-.093L8.814,0l.05.069L8.887.061a12.954,12.954,0,0,1,1.181,3.7c.057.414.105.835.129,1.253.016.281,0,.586.042.863a.6.6,0,0,0,.075.2l-.066.036c-.031.138.007.274-.03.409-.034.349-.1.715-.1,1.065-.705,3.784-2.66,7.026-4.809,10.161-1.944,2.836-4.016,5.6-4.989,8.943-.084.287-.193.585-.254.877A14.842,14.842,0,0,1,0,25.708Q-.005,24.714.014,23.721Z" transform="translate(12.996 13.966)" fill="#ff7179"/>
        <path id="Path_42036-3" data-name="Path 42036" d="M2.727,0l.02.044.006.038C2.8.433,2.8.79,2.837,1.143a14.554,14.554,0,0,0,.547,2.645,31.872,31.872,0,0,0,4.4,8.171c1.9,2.778,4.036,5.589,4.918,8.887a13.641,13.641,0,0,1,.288,1.48c.018.547.005,1.1.008,1.642l.032,2.792c-.1,1.568.011,3.155-.056,4.726l-.005,0c-.18.035-.4-.131-.559-.216a.3.3,0,0,0-.027-.132c-.091-.2-.652-.468-.858-.545a1.472,1.472,0,0,1-.23-.112l-.031-.019-.043.018a8.144,8.144,0,0,1-1.129-.8,25.594,25.594,0,0,1-4.269-4.1A10.589,10.589,0,0,1,4.9,24.408a28.91,28.91,0,0,1-2.643-4.316A18.353,18.353,0,0,1,1.1,17.278a19,19,0,0,1-.982-4.6,4.7,4.7,0,0,1-.047-.594,21.875,21.875,0,0,1,.793-7.57c.231-.8.53-1.58.834-2.354A12.8,12.8,0,0,1,2.29.888,5.806,5.806,0,0,0,2.72.024Z" transform="translate(0 19.877)" fill="#d9202a"/>
        <path id="Path_42039-3" data-name="Path 42039" d="M.078,0C.234.085.456.251.636.216l.005,0L.665.282C.816.312,1.071.1,1.192.025l.1.02a7.855,7.855,0,0,1,.018,1.265c0,.614.038,1.256-.011,1.867a.706.706,0,0,1-.082.33.855.855,0,0,1-.4.287,1.462,1.462,0,0,1-.233-.006.634.634,0,0,1-.465-.261.914.914,0,0,1-.092-.409C-.021,2.469.02,1.789.02,1.137A7.4,7.4,0,0,1,.027.024Z" transform="translate(12.333 51.149)" fill="#af1420"/>
      </g>
    </g>
  </g>
</svg>
