<svg xmlns="http://www.w3.org/2000/svg" width="95.411" height="90.378" viewBox="0 0 95.411 90.378">
  <g id="Group_79889" data-name="Group 79889" transform="translate(0 0)">
    <g id="Group_79859" data-name="Group 79859" transform="translate(28.009 0)">
      <path id="Path_42027" data-name="Path 42027" d="M564.189,6.424l.073-.06c.089.036.11.108.147.193a8.162,8.162,0,0,1,.471,1.4A41.145,41.145,0,0,0,571.2,18.426c2.245,2.8,5.229,5.944,6.585,9.272a19.7,19.7,0,0,1,1.8,5.621c.086.63.16,1.27.2,1.905.024.428,0,.892.064,1.312a.918.918,0,0,0,.114.3l.133.206c.36.764.763,1.507,1.1,2.281a33.984,33.984,0,0,1,2.183,6.933,27.484,27.484,0,0,1,.546,4.091c.024.291.043.579.045.871a14.825,14.825,0,0,1,.03,2.669,33.73,33.73,0,0,1-2.115,10.305,9.146,9.146,0,0,1-.693,1.725c-.011.016-.025.03-.037.045a39.259,39.259,0,0,1-5.454,8.917,11.314,11.314,0,0,1-1.035,1.273,32.509,32.509,0,0,1-4.374,4.292,11.024,11.024,0,0,1-.91.78c-.7.569-1.4,1.111-2.151,1.609-.616.41-1.258.774-1.855,1.213-.048.058-.1.114-.139.176l-.156-.031c-.185.12-.572.437-.8.39l-.036-.1-.008,0c-.274.053-.612-.2-.85-.328a.456.456,0,0,0-.041-.2c-.139-.309-.992-.711-1.3-.829a2.236,2.236,0,0,1-.349-.171l-.047-.028-.065.027a12.39,12.39,0,0,1-1.717-1.213,38.918,38.918,0,0,1-6.492-6.242,16.1,16.1,0,0,1-1.407-1.785,43.97,43.97,0,0,1-4.02-6.563,27.916,27.916,0,0,1-1.758-4.279,28.9,28.9,0,0,1-1.494-7,7.142,7.142,0,0,1-.072-.9,33.268,33.268,0,0,1,1.206-11.513c.352-1.216.806-2.4,1.268-3.58a19.46,19.46,0,0,1,.9-1.933,8.826,8.826,0,0,0,.654-1.314l.011-.037c.028-.433.006-.883.006-1.318a7.317,7.317,0,0,1,.078-1.581c.058-.271.093-.551.136-.825a18.6,18.6,0,0,1,1.279-4.15,22.123,22.123,0,0,1,2.339-4.291,7.611,7.611,0,0,1,1.383-1.815c.27-.376.584-.732.875-1.093q.964-1.176,1.9-2.374a9.008,9.008,0,0,1,.594-.775l1.291-1.662a43.049,43.049,0,0,0,2.478-3.675,31.175,31.175,0,0,0,1.956-3.726c.383-.884.681-1.83,1.144-2.676l.026-.047Z" transform="translate(-544.506 -6.364)" fill="#bbb"/>
      <path id="Path_42028" data-name="Path 42028" d="M1023.48,6.424l.073-.06c.089.036.11.108.147.193a8.172,8.172,0,0,1,.471,1.4,41.149,41.149,0,0,0,6.321,10.468c2.245,2.8,5.229,5.944,6.585,9.272a19.694,19.694,0,0,1,1.8,5.621c.086.63.16,1.27.2,1.905.024.428,0,.892.064,1.312a.921.921,0,0,0,.114.3l.133.206c.36.764.763,1.507,1.1,2.281a33.989,33.989,0,0,1,2.183,6.933,27.509,27.509,0,0,1,.546,4.091c.024.291.043.579.044.871a14.825,14.825,0,0,1,.03,2.669,33.728,33.728,0,0,1-2.115,10.305,9.145,9.145,0,0,1-.693,1.725c-.011.016-.025.03-.037.045a39.265,39.265,0,0,1-5.454,8.917,11.308,11.308,0,0,1-1.036,1.273,32.511,32.511,0,0,1-4.374,4.292,11.056,11.056,0,0,1-.91.78c-.7.569-1.4,1.111-2.15,1.609-.616.41-1.259.774-1.855,1.213-.048.058-.1.114-.14.176l-.156-.031c-.185.12-.572.437-.8.39l-.036-.1c.1-2.389-.074-4.8.085-7.187l-.049-4.246c0-.832.015-1.666-.012-2.5a3.253,3.253,0,0,0,.108-1.025,22.573,22.573,0,0,1-.1-2.821q-.011-1.511.019-3.021l-.014-34.232,0-14.035,0-4.957c0-.862-.023-1.727,0-2.589-.019-.124-.03-.251-.044-.376a2.906,2.906,0,0,0-.1-.9Z" transform="translate(-1003.797 -6.364)" fill="#a2a2a2"/>
      <path id="Path_42030" data-name="Path 42030" d="M1041.845,805.78c.6,8.27-1.865,14.405-6.467,21.12a87.62,87.62,0,0,0-6.656,10.5,25.188,25.188,0,0,0-1.653,4.364c-.2.721-.332,1.463-.557,2.177l-.049-4.247c0-.832.015-1.666-.012-2.5a3.247,3.247,0,0,0,.108-1.025c.094-.444.26-.9.387-1.334,1.479-5.092,4.63-9.288,7.587-13.6C1037.8,816.465,1040.773,811.534,1041.845,805.78Z" transform="translate(-1006.693 -773.009)" fill="#bbb"/>
      <path id="Path_42034" data-name="Path 42034" d="M1026.68,560.592a3.985,3.985,0,0,1,.5-1.1,85.613,85.613,0,0,1,5.9-9.207c.419-.612.866-1.2,1.267-1.828a54.114,54.114,0,0,0,3.886-6.877,25.39,25.39,0,0,0,2.442-12.952,21.405,21.405,0,0,0-.3-2.983,7.508,7.508,0,0,0-.359-1.008l.036-.022-.037.06,0-.142.054-.016.076.105.035-.012a19.7,19.7,0,0,1,1.8,5.621c.086.63.16,1.27.2,1.905.024.428,0,.892.064,1.312a.921.921,0,0,0,.114.3l-.1.055c-.048.209.011.417-.046.622-.052.531-.145,1.088-.152,1.619-1.072,5.754-4.046,10.685-7.313,15.453-2.956,4.314-6.108,8.51-7.587,13.6-.127.437-.293.89-.386,1.334a22.573,22.573,0,0,1-.1-2.821Q1026.65,562.1,1026.68,560.592Z" transform="translate(-1006.893 -503.275)" fill="#e5e5e5"/>
      <path id="Path_42036" data-name="Path 42036" d="M548.654,743.788l.031.066.008.058c.075.534.067,1.077.127,1.613a22.131,22.131,0,0,0,.832,4.023c1.415,4.5,4.053,8.563,6.692,12.427,2.885,4.225,6.138,8.5,7.48,13.516a20.743,20.743,0,0,1,.438,2.25c.027.831.008,1.666.012,2.5l.049,4.246c-.159,2.384.017,4.8-.085,7.187l-.008,0c-.274.053-.612-.2-.85-.328a.456.456,0,0,0-.041-.2c-.139-.309-.992-.711-1.3-.829a2.224,2.224,0,0,1-.349-.171l-.047-.028-.065.027a12.391,12.391,0,0,1-1.717-1.213,38.918,38.918,0,0,1-6.492-6.242,16.1,16.1,0,0,1-1.407-1.785,43.974,43.974,0,0,1-4.02-6.563,27.917,27.917,0,0,1-1.758-4.279,28.9,28.9,0,0,1-1.494-7,7.141,7.141,0,0,1-.072-.9,33.268,33.268,0,0,1,1.206-11.513c.352-1.216.806-2.4,1.268-3.58a19.468,19.468,0,0,1,.9-1.933,8.827,8.827,0,0,0,.654-1.314Z" transform="translate(-544.506 -713.559)" fill="#d1d1d1"/>
      <path id="Path_42039" data-name="Path 42039" d="M1002.191,1903.98c.238.129.576.382.85.328l.008,0,.036.1c.229.047.616-.27.8-.39l.156.031a11.964,11.964,0,0,1,.027,1.924c0,.934.058,1.91-.016,2.839a1.075,1.075,0,0,1-.125.5,1.3,1.3,0,0,1-.613.437,2.229,2.229,0,0,1-.354-.01.964.964,0,0,1-.708-.4,1.388,1.388,0,0,1-.139-.622c-.073-.988-.011-2.022-.011-3.015a11.252,11.252,0,0,1,.01-1.692Z" transform="translate(-983.316 -1826.19)" fill="#a2a2a2"/>
    </g>
    <g id="Group_79862" data-name="Group 79862" transform="translate(0 35.628)">
      <g id="Group_79860" data-name="Group 79860" transform="translate(77.029 0) rotate(45)">
        <path id="Path_42027-2" data-name="Path 42027" d="M12.942.04,12.99,0c.059.024.072.071.1.127a5.374,5.374,0,0,1,.31.921,27.054,27.054,0,0,0,4.156,6.883c1.476,1.84,3.438,3.908,4.33,6.1a12.954,12.954,0,0,1,1.181,3.7c.057.414.105.835.129,1.253.016.281,0,.586.042.863a.6.6,0,0,0,.075.2l.087.135c.237.5.5.991.725,1.5a22.348,22.348,0,0,1,1.435,4.558,18.074,18.074,0,0,1,.359,2.69c.016.192.029.381.029.573a9.754,9.754,0,0,1,.02,1.755,22.178,22.178,0,0,1-1.391,6.776,6.017,6.017,0,0,1-.456,1.134c-.007.011-.016.02-.024.03a25.816,25.816,0,0,1-3.586,5.863,7.43,7.43,0,0,1-.681.837,21.372,21.372,0,0,1-2.876,2.822,7.244,7.244,0,0,1-.6.513c-.457.374-.922.73-1.414,1.058-.4.27-.827.509-1.22.8-.032.038-.064.075-.092.116l-.1-.02c-.122.079-.376.287-.527.256l-.024-.068-.005,0c-.18.035-.4-.131-.559-.216a.3.3,0,0,0-.027-.132c-.091-.2-.652-.468-.858-.545a1.472,1.472,0,0,1-.23-.112l-.031-.019-.043.018a8.143,8.143,0,0,1-1.129-.8,25.594,25.594,0,0,1-4.269-4.1A10.588,10.588,0,0,1,4.9,44.284a28.909,28.909,0,0,1-2.643-4.316A18.354,18.354,0,0,1,1.1,37.155a19,19,0,0,1-.982-4.6,4.7,4.7,0,0,1-.047-.594,21.875,21.875,0,0,1,.793-7.57c.231-.8.53-1.58.834-2.354a12.8,12.8,0,0,1,.592-1.271,5.807,5.807,0,0,0,.43-.864l.007-.024c.018-.285,0-.581,0-.866a4.809,4.809,0,0,1,.051-1.039c.038-.178.061-.362.09-.542A12.231,12.231,0,0,1,3.713,14.7a14.547,14.547,0,0,1,1.538-2.821,5.007,5.007,0,0,1,.909-1.193c.177-.247.384-.482.576-.718q.634-.773,1.249-1.561a5.932,5.932,0,0,1,.391-.51L9.225,6.8a28.32,28.32,0,0,0,1.629-2.416,20.513,20.513,0,0,0,1.286-2.45c.252-.581.448-1.2.752-1.759l.017-.031Z" transform="translate(0 0)" fill="#bbb"/>
        <path id="Path_42028-2" data-name="Path 42028" d="M.033.04.081,0c.059.024.072.071.1.127a5.376,5.376,0,0,1,.31.921A27.054,27.054,0,0,0,4.644,7.931c1.476,1.84,3.438,3.908,4.33,6.1a12.954,12.954,0,0,1,1.181,3.7c.057.414.105.835.129,1.253.016.281,0,.586.042.863a.6.6,0,0,0,.075.2l.087.135c.237.5.5.991.725,1.5a22.347,22.347,0,0,1,1.435,4.558,18.075,18.075,0,0,1,.359,2.69c.016.192.029.381.029.573a9.754,9.754,0,0,1,.02,1.755,22.178,22.178,0,0,1-1.391,6.776,6.019,6.019,0,0,1-.456,1.134c-.007.011-.016.02-.024.03A25.816,25.816,0,0,1,7.6,45.052a7.432,7.432,0,0,1-.681.837,21.374,21.374,0,0,1-2.876,2.822,7.248,7.248,0,0,1-.6.513c-.457.374-.922.73-1.414,1.058-.4.27-.827.509-1.22.8-.032.038-.064.075-.092.116l-.1-.02c-.122.079-.376.287-.527.256l-.024-.068C.133,49.792.017,48.2.122,46.637L.089,43.844c0-.547.01-1.1-.008-1.642a2.139,2.139,0,0,0,.071-.674,14.841,14.841,0,0,1-.064-1.855Q.082,38.68.1,37.687L.092,15.179l0-9.228,0-3.259c0-.567-.015-1.136,0-1.7C.08.907.073.824.064.742A1.913,1.913,0,0,0,0,.147Z" transform="translate(12.909 0)" fill="#a2a2a2"/>
        <path id="Path_42030-2" data-name="Path 42030" d="M10.123,0c.4,5.438-1.226,9.472-4.252,13.887a57.6,57.6,0,0,0-4.377,6.9,16.562,16.562,0,0,0-1.087,2.87c-.132.474-.218.962-.367,1.431L.008,22.3c0-.547.01-1.1-.008-1.642a2.139,2.139,0,0,0,.071-.674c.061-.292.171-.59.254-.877C1.3,15.756,3.37,13,5.314,10.161,7.463,7.026,9.418,3.784,10.123,0Z" transform="translate(12.99 21.548)" fill="#bbb"/>
        <path id="Path_42034-2" data-name="Path 42034" d="M.014,23.721A2.623,2.623,0,0,1,.344,23a56.29,56.29,0,0,1,3.877-6.054c.275-.4.57-.791.833-1.2A35.584,35.584,0,0,0,7.61,11.218,16.7,16.7,0,0,0,9.216,2.7a14.069,14.069,0,0,0-.2-1.961A4.921,4.921,0,0,0,8.782.078L8.806.064,8.781.1l0-.093L8.814,0l.05.069L8.887.061a12.954,12.954,0,0,1,1.181,3.7c.057.414.105.835.129,1.253.016.281,0,.586.042.863a.6.6,0,0,0,.075.2l-.066.036c-.031.138.007.274-.03.409-.034.349-.1.715-.1,1.065-.705,3.784-2.66,7.026-4.809,10.161-1.944,2.836-4.016,5.6-4.989,8.943-.084.287-.193.585-.254.877A14.842,14.842,0,0,1,0,25.708Q-.005,24.714.014,23.721Z" transform="translate(12.996 13.966)" fill="#e5e5e5"/>
        <path id="Path_42036-2" data-name="Path 42036" d="M2.727,0l.02.044.006.038C2.8.433,2.8.79,2.837,1.143a14.554,14.554,0,0,0,.547,2.645,31.872,31.872,0,0,0,4.4,8.171c1.9,2.778,4.036,5.589,4.918,8.887a13.641,13.641,0,0,1,.288,1.48c.018.547.005,1.1.008,1.642l.032,2.792c-.1,1.568.011,3.155-.056,4.726l-.005,0c-.18.035-.4-.131-.559-.216a.3.3,0,0,0-.027-.132c-.091-.2-.652-.468-.858-.545a1.472,1.472,0,0,1-.23-.112l-.031-.019-.043.018a8.144,8.144,0,0,1-1.129-.8,25.594,25.594,0,0,1-4.269-4.1A10.589,10.589,0,0,1,4.9,24.408a28.91,28.91,0,0,1-2.643-4.316A18.353,18.353,0,0,1,1.1,17.278a19,19,0,0,1-.982-4.6,4.7,4.7,0,0,1-.047-.594,21.875,21.875,0,0,1,.793-7.57c.231-.8.53-1.58.834-2.354A12.8,12.8,0,0,1,2.29.888,5.806,5.806,0,0,0,2.72.024Z" transform="translate(0 19.877)" fill="#d1d1d1"/>
        <path id="Path_42039-2" data-name="Path 42039" d="M.078,0C.234.085.456.251.636.216l.005,0L.665.282C.816.312,1.071.1,1.192.025l.1.02a7.855,7.855,0,0,1,.018,1.265c0,.614.038,1.256-.011,1.867a.706.706,0,0,1-.082.33.855.855,0,0,1-.4.287,1.462,1.462,0,0,1-.233-.006.634.634,0,0,1-.465-.261.914.914,0,0,1-.092-.409C-.021,2.469.02,1.789.02,1.137A7.4,7.4,0,0,1,.027.024Z" transform="translate(12.333 51.149)" fill="#a2a2a2"/>
      </g>
      <g id="Group_79861" data-name="Group 79861" transform="translate(0 18.382) rotate(-45)">
        <path id="Path_42027-3" data-name="Path 42027" d="M12.942.04,12.99,0c.059.024.072.071.1.127a5.374,5.374,0,0,1,.31.921,27.054,27.054,0,0,0,4.156,6.883c1.476,1.84,3.438,3.908,4.33,6.1a12.954,12.954,0,0,1,1.181,3.7c.057.414.105.835.129,1.253.016.281,0,.586.042.863a.6.6,0,0,0,.075.2l.087.135c.237.5.5.991.725,1.5a22.348,22.348,0,0,1,1.435,4.558,18.074,18.074,0,0,1,.359,2.69c.016.192.029.381.029.573a9.754,9.754,0,0,1,.02,1.755,22.178,22.178,0,0,1-1.391,6.776,6.017,6.017,0,0,1-.456,1.134c-.007.011-.016.02-.024.03a25.816,25.816,0,0,1-3.586,5.863,7.43,7.43,0,0,1-.681.837,21.372,21.372,0,0,1-2.876,2.822,7.244,7.244,0,0,1-.6.513c-.457.374-.922.73-1.414,1.058-.4.27-.827.509-1.22.8-.032.038-.064.075-.092.116l-.1-.02c-.122.079-.376.287-.527.256l-.024-.068-.005,0c-.18.035-.4-.131-.559-.216a.3.3,0,0,0-.027-.132c-.091-.2-.652-.468-.858-.545a1.472,1.472,0,0,1-.23-.112l-.031-.019-.043.018a8.143,8.143,0,0,1-1.129-.8,25.594,25.594,0,0,1-4.269-4.1A10.588,10.588,0,0,1,4.9,44.284a28.909,28.909,0,0,1-2.643-4.316A18.354,18.354,0,0,1,1.1,37.155a19,19,0,0,1-.982-4.6,4.7,4.7,0,0,1-.047-.594,21.875,21.875,0,0,1,.793-7.57c.231-.8.53-1.58.834-2.354a12.8,12.8,0,0,1,.592-1.271,5.807,5.807,0,0,0,.43-.864l.007-.024c.018-.285,0-.581,0-.866a4.809,4.809,0,0,1,.051-1.039c.038-.178.061-.362.09-.542A12.231,12.231,0,0,1,3.713,14.7a14.547,14.547,0,0,1,1.538-2.821,5.007,5.007,0,0,1,.909-1.193c.177-.247.384-.482.576-.718q.634-.773,1.249-1.561a5.932,5.932,0,0,1,.391-.51L9.225,6.8a28.32,28.32,0,0,0,1.629-2.416,20.513,20.513,0,0,0,1.286-2.45c.252-.581.448-1.2.752-1.759l.017-.031Z" transform="translate(0 0)" fill="#bbb"/>
        <path id="Path_42028-3" data-name="Path 42028" d="M.033.04.081,0c.059.024.072.071.1.127a5.376,5.376,0,0,1,.31.921A27.054,27.054,0,0,0,4.644,7.931c1.476,1.84,3.438,3.908,4.33,6.1a12.954,12.954,0,0,1,1.181,3.7c.057.414.105.835.129,1.253.016.281,0,.586.042.863a.6.6,0,0,0,.075.2l.087.135c.237.5.5.991.725,1.5a22.347,22.347,0,0,1,1.435,4.558,18.075,18.075,0,0,1,.359,2.69c.016.192.029.381.029.573a9.754,9.754,0,0,1,.02,1.755,22.178,22.178,0,0,1-1.391,6.776,6.019,6.019,0,0,1-.456,1.134c-.007.011-.016.02-.024.03A25.816,25.816,0,0,1,7.6,45.052a7.432,7.432,0,0,1-.681.837,21.374,21.374,0,0,1-2.876,2.822,7.248,7.248,0,0,1-.6.513c-.457.374-.922.73-1.414,1.058-.4.27-.827.509-1.22.8-.032.038-.064.075-.092.116l-.1-.02c-.122.079-.376.287-.527.256l-.024-.068C.133,49.792.017,48.2.122,46.637L.089,43.844c0-.547.01-1.1-.008-1.642a2.139,2.139,0,0,0,.071-.674,14.841,14.841,0,0,1-.064-1.855Q.082,38.68.1,37.687L.092,15.179l0-9.228,0-3.259c0-.567-.015-1.136,0-1.7C.08.907.073.824.064.742A1.913,1.913,0,0,0,0,.147Z" transform="translate(12.909 0)" fill="#a2a2a2"/>
        <path id="Path_42030-3" data-name="Path 42030" d="M10.123,0c.4,5.438-1.226,9.472-4.252,13.887a57.6,57.6,0,0,0-4.377,6.9,16.562,16.562,0,0,0-1.087,2.87c-.132.474-.218.962-.367,1.431L.008,22.3c0-.547.01-1.1-.008-1.642a2.139,2.139,0,0,0,.071-.674c.061-.292.171-.59.254-.877C1.3,15.756,3.37,13,5.314,10.161,7.463,7.026,9.418,3.784,10.123,0Z" transform="translate(12.99 21.548)" fill="#bbb"/>
        <path id="Path_42034-3" data-name="Path 42034" d="M.014,23.721A2.623,2.623,0,0,1,.344,23a56.29,56.29,0,0,1,3.877-6.054c.275-.4.57-.791.833-1.2A35.584,35.584,0,0,0,7.61,11.218,16.7,16.7,0,0,0,9.216,2.7a14.069,14.069,0,0,0-.2-1.961A4.921,4.921,0,0,0,8.782.078L8.806.064,8.781.1l0-.093L8.814,0l.05.069L8.887.061a12.954,12.954,0,0,1,1.181,3.7c.057.414.105.835.129,1.253.016.281,0,.586.042.863a.6.6,0,0,0,.075.2l-.066.036c-.031.138.007.274-.03.409-.034.349-.1.715-.1,1.065-.705,3.784-2.66,7.026-4.809,10.161-1.944,2.836-4.016,5.6-4.989,8.943-.084.287-.193.585-.254.877A14.842,14.842,0,0,1,0,25.708Q-.005,24.714.014,23.721Z" transform="translate(12.996 13.966)" fill="#e5e5e5"/>
        <path id="Path_42036-3" data-name="Path 42036" d="M2.727,0l.02.044.006.038C2.8.433,2.8.79,2.837,1.143a14.554,14.554,0,0,0,.547,2.645,31.872,31.872,0,0,0,4.4,8.171c1.9,2.778,4.036,5.589,4.918,8.887a13.641,13.641,0,0,1,.288,1.48c.018.547.005,1.1.008,1.642l.032,2.792c-.1,1.568.011,3.155-.056,4.726l-.005,0c-.18.035-.4-.131-.559-.216a.3.3,0,0,0-.027-.132c-.091-.2-.652-.468-.858-.545a1.472,1.472,0,0,1-.23-.112l-.031-.019-.043.018a8.144,8.144,0,0,1-1.129-.8,25.594,25.594,0,0,1-4.269-4.1A10.589,10.589,0,0,1,4.9,24.408a28.91,28.91,0,0,1-2.643-4.316A18.353,18.353,0,0,1,1.1,17.278a19,19,0,0,1-.982-4.6,4.7,4.7,0,0,1-.047-.594,21.875,21.875,0,0,1,.793-7.57c.231-.8.53-1.58.834-2.354A12.8,12.8,0,0,1,2.29.888,5.806,5.806,0,0,0,2.72.024Z" transform="translate(0 19.877)" fill="#d1d1d1"/>
        <path id="Path_42039-3" data-name="Path 42039" d="M.078,0C.234.085.456.251.636.216l.005,0L.665.282C.816.312,1.071.1,1.192.025l.1.02a7.855,7.855,0,0,1,.018,1.265c0,.614.038,1.256-.011,1.867a.706.706,0,0,1-.082.33.855.855,0,0,1-.4.287,1.462,1.462,0,0,1-.233-.006.634.634,0,0,1-.465-.261.914.914,0,0,1-.092-.409C-.021,2.469.02,1.789.02,1.137A7.4,7.4,0,0,1,.027.024Z" transform="translate(12.333 51.149)" fill="#a2a2a2"/>
      </g>
    </g>
  </g>
</svg>
